<svg width="26" height="20" viewBox="0 0 26 20" fill="none" xmlns="http://www.w3.org/2000/svg">
<path d="M4.08729 19.7443C2.99357 19.752 2.44517 19.5371 2.4421 19.0996C2.44078 18.9121 2.61156 18.7546 2.95442 18.6272C5.82124 17.4508 7.24291 15.1908 7.21945 11.8471C6.7824 11.9127 6.47012 11.9461 6.28263 11.9475C2.53272 11.9738 0.644607 10.112 0.61829 6.36207C0.592192 2.64341 2.4541 0.770927 6.204 0.74461C10.5476 0.714126 12.7362 3.08945 12.7698 7.87058C12.806 13.0267 10.7539 16.7443 6.61354 19.0234C5.74186 19.4983 4.89977 19.7386 4.08729 19.7443ZM16.3204 19.5178C15.2267 19.5255 14.6783 19.3106 14.6752 18.8731C14.6739 18.6856 14.8446 18.5282 15.1875 18.4007C18.0543 17.2244 19.476 14.9643 19.4525 11.6207C19.0155 11.6862 18.7032 11.7197 18.5157 11.721C14.7658 11.7473 12.8777 9.8855 12.8514 6.13559C12.8253 2.41693 14.6872 0.544446 18.4371 0.518128C22.7807 0.487644 24.9693 2.86297 25.0029 7.6441C25.0391 12.8002 22.987 16.5178 18.8466 18.797C17.9749 19.2718 17.1329 19.5121 16.3204 19.5178Z" fill="#00DAF7"/>
</svg>
